<?xml version="1.0" encoding="UTF-8" standalone="no"?>
<svg
   width="206.88638mm"
   height="75.844971mm"
   viewBox="0 0 206.88638 75.844971"
   version="1.1"
   id="svg8"
   inkscape:version="1.2.1 (9c6d41e410, 2022-07-14)"
   sodipodi:docname="Awebster Consulting.svg"
   xmlns:inkscape="http://www.inkscape.org/namespaces/inkscape"
   xmlns:sodipodi="http://sodipodi.sourceforge.net/DTD/sodipodi-0.dtd"
   xmlns="http://www.w3.org/2000/svg"
   xmlns:svg="http://www.w3.org/2000/svg"
   xmlns:rdf="http://www.w3.org/1999/02/22-rdf-syntax-ns#"
   xmlns:cc="http://creativecommons.org/ns#"
   xmlns:dc="http://purl.org/dc/elements/1.1/">
  <defs
     id="defs2" />
  <sodipodi:namedview
     id="base"
     pagecolor="#ffffff"
     bordercolor="#666666"
     borderopacity="1.0"
     inkscape:pageopacity="0.0"
     inkscape:pageshadow="2"
     inkscape:zoom="0.98994949"
     inkscape:cx="494.46967"
     inkscape:cy="260.61936"
     inkscape:document-units="mm"
     inkscape:current-layer="layer1"
     inkscape:document-rotation="0"
     showgrid="false"
     inkscape:window-width="1920"
     inkscape:window-height="1009"
     inkscape:window-x="1912"
     inkscape:window-y="-8"
     inkscape:window-maximized="1"
     inkscape:showpageshadow="0"
     inkscape:pagecheckerboard="0"
     inkscape:deskcolor="#d1d1d1">
    <inkscape:grid
       type="xygrid"
       id="grid116"
       originx="-1.5889179"
       originy="-108.15229" />
  </sodipodi:namedview>
  <metadata
     id="metadata5">
    <rdf:RDF>
      <cc:Work
         rdf:about="">
        <dc:format>image/svg+xml</dc:format>
        <dc:type
           rdf:resource="http://purl.org/dc/dcmitype/StillImage" />
      </cc:Work>
    </rdf:RDF>
  </metadata>
  <g
     inkscape:label="Layer 1"
     inkscape:groupmode="layer"
     id="layer1"
     transform="translate(-1.588918,-108.15228)">
    <path
       style="fill:#000080;fill-opacity:1;stroke-width:0.352777"
       d="m 77.481744,89.840296 c -0.32023,-0.61925 -0.7068,-1.53207 -0.85903,-2.02847 -0.15225,-0.4964 -1.01572,-2.80755 -1.91883,-5.13589 -0.90311,-2.32833 -2.17354,-5.74146 -2.82316,-7.58472 -0.64963,-1.84326 -1.68875,-4.70076 -2.30918,-6.35 -0.62042,-1.64924 -2.04927,-5.69736 -3.17522,-8.99583 -1.57471,-4.61313 -1.93685,-6.03793 -1.56914,-6.17361 0.26291,-0.097 2.1858,-0.097 4.27305,0 l 3.79501,0.17638 1.52339,4.40973 c 0.83785,2.42534 1.69065,4.96534 1.89511,5.64444 0.20444,0.6791 0.784,2.42535 1.28788,3.88056 0.5039,1.45521 1.67181,4.8438 2.59538,7.53022 0.92356,2.6864 1.77851,4.98368 1.89988,5.10506 0.34298,0.34298 0.84571,-0.6365 1.41532,-2.75751 0.28657,-1.06715 0.93944,-3.1309 1.4508,-4.58611 2.46329,-7.00988 2.94512,-8.42822 3.47536,-10.23055 0.31398,-1.06715 0.71598,-2.25778 0.89334,-2.64584 0.53741,-1.17571 1.76694,-5.49749 1.76694,-6.21077 0,-0.60282 0.28996,-0.66839 2.95582,-0.66839 3.43016,0 3.01062,-0.48205 4.75897,5.46805 1.337716,4.55259 3.516346,11.39288 3.988756,12.52361 0.20266,0.48507 0.8172,2.23132 1.36565,3.88056 1.89838,5.70866 2.4884,6.58783 2.90312,4.32585 0.0983,-0.53595 1.40837,-4.46696 2.91134,-8.73557 3.37355,-9.58127 4.39968,-12.59899 4.39968,-12.93896 0,-0.14506 0.3289,-1.14282 0.7309,-2.21725 l 0.7309,-1.95351 h 4.19218 4.19218 l -0.91389,2.38125 c -0.50264,1.30968 -1.14328,3.175 -1.42364,4.14513 -0.28036,0.97014 -1.0693,3.27202 -1.7532,5.11528 -0.6839,1.84327 -1.63898,4.46264 -2.1224,5.82084 -0.48342,1.35819 -1.32668,3.58069 -1.87392,4.93888 -0.54724,1.3582 -1.42422,3.81882 -1.94884,5.46806 -0.52463,1.64924 -1.1605,3.47486 -1.41305,4.05694 -0.25256,0.58209 -0.81027,2.05053 -1.23937,3.2632 l -0.78017,2.20486 h -4.16524 c -2.7403,0 -4.25039,-0.13775 -4.41411,-0.40266 -0.28431,-0.46002 -4.538806,-12.70625 -6.386396,-18.38276 -0.6789,-2.08579 -1.33844,-3.79236 -1.46567,-3.79236 -0.25861,0 -1.20486,2.4485 -3.27206,8.46667 -0.76645,2.23132 -1.61468,4.53323 -1.885,5.11535 -0.27029,0.58212 -0.83919,2.40775 -1.26419,4.05695 -0.425,1.64919 -0.99608,3.4351 -1.26905,3.96867 l -0.4963,0.97014 h -4.03883 -4.03883 z"
       id="path52"
       sodipodi:nodetypes="sssssssscsssssssssssssssssscccsssssssscsssssssscccs"
       transform="matrix(0.65289446,0,0,0.65289446,-1.5003353,104.35018)" />
    <path
       style="fill:#494949;fill-opacity:1;stroke-width:0.352777"
       d="m 103.68417,118.21831 c -2.63772,-1.7973 -3.851376,-3.68111 -4.180806,-6.48929 -0.65505,-5.58398 3.414976,-10.05858 9.026186,-9.92341 2.95325,0.0711 5.64445,1.88545 5.64445,3.80527 0,0.94704 -0.87126,1.81845 -1.23297,1.23318 -0.1306,-0.21131 -0.8834,-0.79197 -1.67288,-1.29035 -1.22444,-0.77296 -1.73867,-0.88421 -3.49848,-0.75692 -1.68477,0.12187 -2.26283,0.33916 -3.15253,1.18502 -1.56627,1.48912 -2.085,2.68681 -2.0835,4.81065 10e-4,2.16657 0.74475,3.6195 2.55959,5.00373 1.72014,1.31201 4.73112,1.32386 6.13353,0.0241 1.26585,-1.17314 2.73344,-1.07393 2.85651,0.19312 0.19757,2.03412 -2.05143,3.175 -6.25883,3.175 -2.3831,0 -2.89123,-0.11907 -4.14027,-0.97014 z m 19.30927,0.64542 c -1.70056,-0.34459 -2.54432,-0.85312 -3.81293,-2.29799 -1.73579,-1.97696 -2.33752,-5.59516 -1.45752,-8.76402 0.4337,-1.56175 2.1111,-3.59027 3.60963,-4.36518 1.24009,-0.64128 4.5507,-0.71318 6.07054,-0.13185 4.55754,1.74323 5.92599,9.28051 2.42709,13.36818 -1.57678,1.84212 -4.28118,2.70874 -6.83681,2.19086 z m 4.24739,-1.97561 c 3.45561,-1.78696 3.45561,-10.19294 0,-11.9799 -0.57054,-0.29505 -1.7993,-0.53585 -2.73056,-0.53512 -3.44187,0.003 -5.20501,2.21297 -5.20501,6.52507 0,4.3121 1.76314,6.52239 5.20501,6.52507 0.93126,8e-4 2.16002,-0.24008 2.73056,-0.53512 z m 27.41509,1.89859 c -2.71211,-0.37219 -3.44026,-0.80229 -3.44026,-2.03214 v -0.99794 l 1.64729,0.83397 c 3.04024,1.53916 7.57837,0.91475 8.08723,-1.11274 0.54827,-2.18448 -0.73962,-3.2647 -4.61924,-3.87439 -2.07804,-0.32657 -4.24425,-1.47265 -4.70825,-2.491 -0.99196,-2.17712 -0.12422,-4.49188 2.11869,-5.65173 1.26263,-0.65294 4.77155,-0.71586 7.10828,-0.12746 1.49201,0.37569 1.65489,0.51674 1.65489,1.43316 0,1.19766 0.0742,1.17643 -1.4451,0.41343 -1.72149,-0.86456 -5.21894,-1.02867 -6.60852,-0.31009 -1.34735,0.69674 -1.78895,2.07656 -1.07471,3.35811 0.38908,0.69814 0.98917,1.01594 2.61188,1.38323 4.30129,0.97356 4.8861,1.18992 5.86664,2.17046 0.75309,0.75309 1.00226,1.33856 1.00127,2.35265 -0.003,3.52243 -3.20366,5.33814 -8.20009,4.65248 z m 15.79782,-0.002 c -0.76969,-0.17725 -1.78234,-0.67478 -2.25033,-1.10563 -1.57653,-1.45126 -1.8183,-2.63279 -1.8183,-8.88578 v -5.83216 h 0.88194 0.88195 v 5.65577 c 0,7.81541 0.47756,8.80812 4.23727,8.80812 1.53482,0 1.97303,-0.15881 2.84542,-1.0312 l 1.03119,-1.03119 v -6.20076 -6.20074 h 1.10346 1.10345 l -0.1544,5.93455 c -0.13244,5.0907 -0.25662,6.13158 -0.87328,7.32014 -1.17388,2.26258 -3.92588,3.27425 -6.98837,2.56902 z m 66.80547,0.028 c -4.33712,-0.68352 -6.61148,-3.84619 -6.22534,-8.65678 0.42223,-5.26004 4.25706,-8.03775 9.87144,-7.15023 2.94857,0.4661 3.79646,0.93714 3.79646,2.10908 v 1.00987 l -1.4993,-0.78383 c -1.01783,-0.53212 -2.29232,-0.82319 -3.96875,-0.90638 -2.12709,-0.10555 -2.63798,-0.008 -3.68509,0.7025 -1.93048,1.31019 -2.64531,2.8671 -2.64531,5.76154 0,4.34484 2.00787,6.52639 6.00682,6.52639 1.21986,0 2.62514,-0.15482 3.12283,-0.34405 0.83316,-0.31677 0.90491,-0.51257 0.90491,-2.46945 v -2.12524 h -2.11666 c -2.02259,0 -2.11667,-0.0392 -2.11667,-0.88195 0,-0.87157 0.0353,-0.88194 2.99861,-0.88194 h 2.99861 v 3.49942 3.49943 l -1.67569,0.52565 c -2.28077,0.71544 -3.84502,0.869 -5.76687,0.56612 z m -101.56577,-7.91443 v -7.9375 h 1.37712 1.37712 l 3.47357,6.54941 3.47358,6.54942 0.096,-6.54942 0.096,-6.54941 h 0.87416 0.87416 v 7.9375 7.9375 l -1.14653,-0.003 c -1.13099,-0.003 -1.19673,-0.0986 -4.85069,-7.04974 -2.03729,-3.87565 -3.82323,-7.04933 -3.96875,-7.05261 -0.14552,-0.003 -0.26459,3.16907 -0.26459,7.04961 0,6.82037 -0.0235,7.05557 -0.70555,7.05557 -0.68465,0 -0.70556,-0.2352 -0.70556,-7.9375 z m 46.91944,0 v -7.9375 h 0.88195 0.88194 v 7.05555 7.05556 h 3.88056 3.88055 v 0.88194 0.88195 h -4.7625 -4.7625 z m 13.75834,0.88194 v -7.05555 H 193.549 c -2.77519,0 -2.82223,-0.0147 -2.82223,-0.88195 v -0.88194 h 6.52639 6.52639 v 0.88194 c 0,0.86725 -0.047,0.88195 -2.82222,0.88195 h -2.82222 v 7.05555 7.05556 h -0.88195 -0.88194 z m 9.525,6.17361 c 0,-0.74475 0.16463,-0.88194 1.05833,-0.88194 h 1.05833 v -6.17361 -6.17361 h -1.05833 c -0.8937,0 -1.05833,-0.13719 -1.05833,-0.88195 0,-0.86724 0.047,-0.88194 2.82222,-0.88194 2.77519,0 2.82222,0.0147 2.82222,0.88194 0,0.70556 -0.17639,0.88195 -0.88194,0.88195 h -0.88195 v 6.17361 6.17361 h 0.88195 c 0.70555,0 0.88194,0.17639 0.88194,0.88194 0,0.86725 -0.047,0.88195 -2.82222,0.88195 -2.77519,0 -2.82222,-0.0147 -2.82222,-0.88195 z m 9.87778,-7.05555 v -7.9375 h 1.37711 1.37712 l 3.47358,6.54941 3.47357,6.54942 0.096,-6.54942 0.096,-6.54941 h 0.87416 0.87416 v 7.9375 7.9375 l -1.14653,-0.003 c -1.13098,-0.003 -1.19673,-0.0986 -4.85069,-7.04974 -2.03729,-3.87565 -3.82323,-7.04933 -3.96875,-7.05261 -0.14552,-0.003 -0.26458,3.16907 -0.26458,7.04961 0,6.82037 -0.0235,7.05557 -0.70556,7.05557 -0.68465,0 -0.70555,-0.2352 -0.70555,-7.9375 z M 202.19205,87.420556 c -2.86623,-0.25123 -6.47572,-1.06837 -8.55486,-1.93671 l -1.14653,-0.47885 v -3.89855 c 0,-2.14421 0.10191,-3.89856 0.22646,-3.89856 0.12456,0 1.23129,0.63461 2.45942,1.41024 3.35296,2.11759 6.85523,3.17587 10.51016,3.17587 3.86876,0 5.73404,-0.68516 6.43546,-2.36388 0.4124,-0.98702 0.42068,-1.35756 0.0474,-2.11849 -0.75351,-1.53582 -2.02964,-2.15855 -6.29151,-3.07016 -7.12003,-1.52297 -10.25966,-3.14225 -11.92288,-6.14931 -1.01293,-1.83136 -1.36819,-5.06785 -0.76534,-6.97242 0.96772,-3.05727 3.62971,-5.55922 7.43531,-6.98829 3.63989,-1.36685 10.80984,-1.28916 16.23967,0.17597 l 2.78978,0.75276 v 3.84191 c 0,2.11305 -0.0601,3.84191 -0.13365,3.84191 -0.0735,0 -1.06569,-0.56139 -2.20486,-1.24753 -2.94239,-1.77227 -5.99952,-2.63302 -9.35164,-2.63302 -4.18392,0 -6.41911,1.24943 -6.41911,3.58816 0,1.6971 1.30348,2.57164 5.12474,3.43832 7.10824,1.61218 9.03619,2.30808 11.48847,4.14675 3.55625,2.66641 3.79699,9.09198 0.48175,12.8583 -3.18281,3.61586 -8.89525,5.18759 -16.4482,4.52558 z m -74.25972,-17.09184 v -16.75694 h 11.99444 11.99445 v 3.175 3.175 h -7.9375 -7.9375 v 2.99861 2.99861 h 7.23194 7.23195 v 3.175 3.175 h -7.23195 -7.23194 v 4.23333 4.23334 h 7.9375 7.9375 v 3.175 3.175 h -11.99445 -11.99444 z m 31.39722,-0.0515 v -16.80849 l 9.26042,0.19982 c 9.89413,0.21351 11.44918,0.45124 14.00202,2.14063 2.23189,1.477 3.28786,4.67865 2.50366,7.59096 -0.43201,1.60435 -2.74745,4.44811 -3.92641,4.82229 -1.06663,0.33854 -0.8021,0.66017 1.098,1.33503 3.78181,1.34318 5.52589,4.08318 5.19813,8.16641 -0.29936,3.72932 -2.24005,6.2853 -6.05287,7.97189 -2.12478,0.93989 -6.89524,1.37663 -15.11559,1.38384 l -6.96736,0.006 z m 17.87901,9.89737 c 0.54703,-0.40563 1.22154,-1.37954 1.4989,-2.16425 0.43855,-1.24073 0.43741,-1.60451 -0.009,-2.79026 -0.79787,-2.1205 -2.10222,-2.59704 -7.11013,-2.5977 l -4.14514,-5.3e-4 v 4.26211 4.2621 l 4.38526,-0.11697 c 3.78477,-0.10095 4.52145,-0.21795 5.37986,-0.85448 z m -1.53602,-14.19722 c 1.72228,-1.61966 1.4512,-4.8867 -0.48872,-5.88987 -0.67662,-0.34989 -2.09783,-0.51845 -4.37147,-0.51845 h -3.36891 v 3.73628 3.73628 l 3.67664,-0.12031 c 3.27612,-0.1072 3.77205,-0.21003 4.55246,-0.94393 z m 58.79868,7.5264 v -13.58194 h -5.29167 -5.29167 v -3.175 -3.175 h 14.64028 14.64028 v 3.175 3.175 h -5.29167 -5.29166 v 13.58194 13.58195 h -4.05695 -4.05694 z m 24.34166,-3.175 v -16.75694 h 11.99444 11.99446 v 3.175 3.175 h -7.9375 -7.93751 v 2.99861 2.99861 h 7.23195 7.23193 v 3.175 3.175 h -7.23193 -7.23195 v 4.23333 4.23334 h 7.93751 7.9375 v 3.175 3.175 h -11.99446 -11.99444 z m 31.39723,-0.049 v -16.80601 l 9.43679,0.19328 c 10.46647,0.21436 11.96084,0.46743 14.62471,2.47659 2.21565,1.67109 3.10417,3.66367 3.09465,6.9398 -0.005,1.81143 -0.21325,3.10918 -0.65233,4.07039 -0.68255,1.49432 -3.33256,4.15445 -4.80862,4.82698 -0.48474,0.22086 -0.88132,0.51745 -0.88132,0.6591 0,0.14165 2.38125,3.31906 5.29166,7.06091 2.91042,3.74184 5.29167,6.93421 5.29167,7.09416 0,0.15994 -2.19067,0.2908 -4.86818,0.2908 h -4.86817 l -4.54612,-6.17361 -4.5461,-6.17361 h -2.22737 -2.22739 v 6.17361 6.17361 h -4.05694 -4.05694 z m 16.23328,-2.18573 c 2.11674,-1.11462 3.09758,-4.23736 2.01287,-6.40827 -0.77965,-1.56033 -2.48926,-2.11551 -6.51629,-2.11612 l -3.61598,-5.3e-4 v 4.58611 4.58611 h 3.44508 c 2.65989,0 3.72526,-0.14752 4.67432,-0.64728 z"
       id="path42"
       transform="matrix(0.65289446,0,0,0.65289446,-1.5003353,104.35018)" />
    <path
       style="fill:#000080;stroke:none;stroke-width:0.755952"
       d="m 71.222864,120.48845 c -6.77137,-1.89976 -14.70606,-7.25898 -19.52326,-13.18631 -4.02027,-4.9467 -9.47937,-15.687494 -11.40677,-22.442864 l -1.24019,-4.3467 h -9.36646 c -5.15156,0 -9.82018,-0.17412 -10.37473,-0.38693 -0.6787,-0.26043 -1.52275,1.03685 -2.5822,3.96875 l -1.57392,4.35568 h -4.97654 c -2.7371005,0 -5.1716905,-0.19532 -5.4102005,-0.43405 -0.83536,-0.83609 12.7136905,-38.76652 17.7148005,-49.59239 8.63099,-18.68347 22.47822,-29.1396498 42.459,-32.0612298 7.15982,-1.04691 21.77231,-0.49722 27.44712,1.03251 l 3.77977,1.01888 0.21804,6.0957498 0.21807,6.09575 -6.91622,-1.79637 c -8.36866,-2.17361 -21.19466,-2.46618 -28.32387,-0.64609 -9.57596,2.44475 -18.41691,8.2838 -23.37472,15.43794 l -2.14819,3.09982 1.93717,5.842 c 7.41936,22.37473 15.4737,44.60149 18.09684,49.94007 5.79653,11.796984 13.74417,17.520424 25.16106,18.119674 4.31832,0.22665 7.47404,-0.0455 10.40356,-0.89709 2.31274,-0.67236 4.40779,-1.22243 4.65562,-1.22243 0.24785,0 0.45061,2.67155 0.45061,5.93683 v 5.93682 l -5.2483,0.86675 c -7.41756,1.22498 -13.94208,0.98618 -20.07609,-0.73477 z M 34.422244,67.094416 c -1.31805,-4.84616 -5.2338,-14.55209 -5.87088,-14.55209 -0.57048,0 -4.60444,10.76952 -5.73396,15.30804 l -0.51738,2.07887 h 6.44661 6.44661 z"
       id="path56"
       transform="matrix(0.65289446,0,0,0.65289446,-1.5003353,104.35018)" />
    <path
       style="fill:#000080;stroke-width:1.01015"
       d="m 177.11749,692.83155 c -18.44856,-3.93612 -35.6573,-14.08168 -50.50763,-29.77722 -11.89337,-12.57027 -24.17801,-35.04344 -31.716084,-58.02045 l -3.953011,-12.0493 -25.096936,-0.52334 c -29.171341,-0.6083 -26.833187,-1.42123 -31.209079,10.85074 -1.540566,4.32044 -3.138689,8.24382 -3.551385,8.71864 -0.412695,0.4748 -6.021256,0.53394 -12.463469,0.13142 -9.7456429,-0.60893 -11.7131135,-1.00267 -11.7131135,-2.34407 0,-7.78676 35.2925925,-104.0401 46.0061845,-125.47246 20.555714,-41.12137 54.095153,-65.94557 98.920583,-73.21603 17.8565,-2.89623 55.79376,-1.60862 71.87634,2.43952 l 6.94568,1.7483 0.88564,13.87015 c 0.48711,7.62858 0.6285,14.12729 0.31421,14.44158 -0.31429,0.31429 -6.39493,-0.81868 -13.51255,-2.51772 -7.11761,-1.69903 -17.71408,-3.62663 -23.54771,-4.28356 -14.36942,-1.61815 -38.43363,-0.64885 -48.9924,1.9734 -23.74737,5.8976 -46.663377,21.22632 -59.090616,39.52624 l -4.386153,6.4589 7.872349,23.79457 c 10.79999,32.64351 28.88993,83.41546 35.95608,100.91578 15.30473,37.90435 33.10761,54.08145 63.59682,57.78911 11.11517,1.35166 20.31354,0.70429 32.17145,-2.26422 7.09534,-1.77624 8.58128,-1.88924 9.32844,-0.70938 0.4888,0.77188 0.8957,7.12297 0.9042,14.11354 l 0.0155,12.71013 -11.36422,1.69629 c -13.82633,2.06381 -34.01463,2.06355 -43.68909,-5.6e-4 z M 81.040085,564.44777 c -2.993018,-12.66512 -14.293027,-40.65864 -16.41248,-40.65864 -1.651931,0 -13.23509,30.97905 -14.82469,39.64849 l -0.694567,3.78807 h 16.294107 16.294107 z"
       id="path106"
       transform="matrix(0.26458333,0,0,0.26458333,-3.4375e-8,3.3958334e-6)" />
    <path
       style="fill:#000080;stroke-width:1.01015"
       d="m 186.93357,617.48078 c -2.07109,-2.51967 -32.54452,-86.56213 -32.54452,-89.75432 0,-1.00377 12.22048,-1.24069 16.79584,-0.32562 2.82413,0.56483 3.18676,1.41382 12.83611,30.05204 11.67242,34.64247 12.4937,36.74161 13.8459,35.3894 1.22918,-1.22917 21.17192,-60.75083 21.17192,-63.19029 0,-0.96314 0.87925,-2.22173 1.95389,-2.79686 2.69138,-1.44038 9.41836,-1.3134 11.49601,0.217 1.00993,0.74392 4.37998,9.77053 8.20271,21.97082 9.84993,31.43619 15.53161,46.21088 17.0663,44.37937 0.20174,-0.24076 5.38332,-15.21122 11.51462,-33.26769 l 11.14782,-32.82996 9.83811,-0.2906 c 8.91493,-0.26333 9.77619,-0.12927 9.17838,1.4286 -0.36284,0.94557 -2.18329,6.30387 -4.04542,11.90736 -1.86214,5.60348 -7.23199,20.64323 -11.933,33.42166 -4.701,12.77843 -10.30359,28.12012 -12.45019,34.09264 l -3.90291,10.85914 -6.60803,-0.0111 c -3.63441,-0.006 -8.24037,-0.28114 -10.23546,-0.61118 l -3.62743,-0.60005 -8.86228,-26.03234 c -9.57255,-28.1187 -10.07091,-29.32239 -11.50596,-27.79018 -1.12155,1.19748 -12.00943,31.30174 -16.34611,45.19589 l -3.0741,9.84898 h -9.43715 c -6.32275,0 -9.77968,-0.4167 -10.47505,-1.26269 z"
       id="path108"
       transform="matrix(0.26458333,0,0,0.26458333,-3.4375e-8,3.3958334e-6)" />
    <path
       style="fill:#000080;stroke-width:1.01015"
       d="m 176.01592,691.99553 c -8.87773,-1.93159 -20.09723,-6.86143 -29.28559,-12.86803 -9.97731,-6.52235 -23.71196,-20.17609 -30.05719,-29.88012 -8.74026,-13.36683 -19.133089,-36.10162 -23.923457,-52.33368 l -1.225358,-4.1521 -22.90205,-0.71903 c -22.055456,-0.69245 -27.478252,-0.39084 -30.105358,1.67449 -0.670902,0.52744 -2.663163,4.78316 -4.427246,9.45715 l -3.207425,8.4982 h -8.325929 c -11.504584,0 -14.6394355,-0.73007 -14.6391662,-3.40927 2.983e-4,-2.96702 13.2064912,-41.8787 23.5800642,-69.478 18.395013,-48.94066 25.97802,-64.55938 39.404284,-81.161 22.799085,-28.19114 54.776731,-44.2235 93.837791,-47.04668 19.97951,-1.44403 58.71197,1.60931 64.31109,5.06975 1.55302,0.95982 2.9986,27.33247 1.49781,27.32557 -0.49653,-0.002 -7.49402,-1.42171 -15.54998,-3.1543 -24.89354,-5.35381 -57.61522,-5.23295 -75.53596,0.27902 -20.60509,6.33759 -41.996857,21.6491 -53.244524,38.11064 l -4.644037,6.79678 11.536589,33.78678 c 31.059122,90.9617 38.965342,109.86255 53.138752,127.03513 7.20924,8.73475 19.69132,16.50218 31.87861,19.83761 9.41784,2.5775 28.69958,3.13645 37.88072,1.09812 4.16688,-0.9251 9.20809,-1.93016 11.20268,-2.23345 l 3.62654,-0.55145 0.65474,12.91847 c 0.36011,7.10516 0.41872,13.1545 0.13025,13.44297 -2.78478,2.78477 -44.6843,4.0329 -55.60665,1.65643 z M 81.658071,565.72255 c 0,-6.10026 -14.366019,-41.93342 -16.8117,-41.93342 -0.793563,0 -2.386424,2.15921 -3.53969,4.79823 -3.530213,8.0782 -10.005732,26.64122 -11.443559,32.80463 l -1.360909,5.8337 h 16.577929 c 14.003294,0 16.577929,-0.23344 16.577929,-1.50314 z"
       id="path110"
       transform="matrix(0.26458333,0,0,0.26458333,-3.4375e-8,3.3958334e-6)" />
    <path
       style="fill:#000080;stroke-width:1.01015"
       d="m 192.02181,618.00406 c -2.6981,-0.24313 -4.62747,-1.02059 -5.20238,-2.09636 -2.84392,-5.32154 -31.42022,-84.59477 -31.42022,-87.16254 0,-0.50348 3.56609,-0.91542 7.92466,-0.91542 6.266,0 8.25862,0.37 9.52027,1.76777 0.87758,0.97227 5.91682,14.26841 11.19829,29.54696 5.28148,15.27856 10.1332,29.25655 10.7816,31.06219 0.6484,1.80565 1.7364,3.283 2.41777,3.283 1.17312,0 10.76063,-26.58848 19.48737,-54.04316 l 3.85304,-12.12183 5.65006,-0.29865 5.65007,-0.29864 2.04008,4.84433 c 1.12205,2.66438 5.56967,15.5254 9.8836,28.58005 8.54098,25.84636 10.79831,31.7141 12.63778,32.85096 0.66368,0.41017 1.55215,0.18681 1.97437,-0.49636 0.42223,-0.68318 5.6551,-15.5149 11.62859,-32.95938 l 10.8609,-31.71724 h 9.03467 c 8.89887,0 9.02438,0.0342 8.34953,2.27285 -1.01457,3.3656 -16.54672,46.89029 -24.60287,68.94291 l -7.01145,19.1929 -7.90945,-0.28689 c -12.66199,-0.45928 -11.24467,1.02528 -17.76824,-18.61125 -8.83064,-26.58099 -12.38681,-35.6501 -13.97908,-35.6501 -1.77126,0 -5.88038,10.28204 -14.21367,35.56616 l -6.39519,19.40372 -5.05076,-0.13476 c -2.77792,-0.0741 -6.98062,-0.30867 -9.33934,-0.52122 z"
       id="path112"
       transform="matrix(0.26458333,0,0,0.26458333,-3.4375e-8,3.3958334e-6)" />
    <path
       style="fill:#000080;stroke-width:1.01015"
       d="m 173.58195,690.97962 c -3.05571,-0.82335 -10.55609,-3.99493 -16.66751,-7.04794 -17.51893,-8.75173 -33.00595,-23.3771 -43.56149,-41.1379 -5.7009,-9.59235 -14.012097,-28.00276 -18.134229,-40.16974 l -3.265811,-9.63946 -5.905033,-0.64798 c -3.247769,-0.35638 -14.594179,-0.69731 -25.214243,-0.75761 -22.98169,-0.13048 -22.625844,-0.28136 -27.121678,11.49951 -1.638742,4.29416 -3.525161,8.01695 -4.192039,8.27285 -0.66688,0.25591 -5.459438,0.0919 -10.65013,-0.36444 -9.0595286,-0.79649 -9.4492066,-0.93091 -9.726756,-3.35511 -0.5845034,-5.10525 26.991238,-82.08354 39.895441,-111.369 15.624849,-35.45985 34.855101,-57.0187 63.698028,-71.41127 17.21131,-8.58841 35.13528,-12.87976 57.81499,-13.84204 17.96417,-0.7622 47.0522,1.43682 56.76682,4.2915 1.82386,0.53595 2.31602,3.01436 3.28931,16.56426 0.29931,4.16688 0.14087,8.20513 -0.35208,8.97388 -0.74887,1.16786 -3.28175,0.91865 -15.40041,-1.51522 -13.69588,-2.75064 -15.88329,-2.9099 -39.25287,-2.85791 -22.29889,0.0496 -25.54869,0.27562 -32.82996,2.2831 -15.78242,4.35131 -33.81886,14.72375 -45.843408,26.36377 -6.529693,6.32088 -15.270821,17.87568 -15.270821,20.18633 0,3.18518 31.563889,93.60209 41.118559,117.78691 13.00588,32.92052 24.14057,48.30528 41.54219,57.3987 10.64071,5.5604 16.29488,6.873 31.99156,7.42671 11.3368,0.39992 16.0755,0.11738 23.88847,-1.42432 l 9.74632,-1.9232 0.59662,3.60624 c 0.32815,1.98343 0.60162,7.75799 0.60774,12.83234 0.0105,8.68677 -0.12175,9.26797 -2.26173,9.94249 -1.25006,0.39402 -12.9552,0.89981 -26.01142,1.12398 -18.80201,0.32283 -24.89396,0.0963 -29.29443,-1.08943 z M 81.338988,562.89425 c -0.678182,-4.94789 -6.12168,-19.74755 -11.518487,-31.31622 -4.253389,-9.11764 -5.755076,-9.57325 -9.024733,-2.73813 -2.441249,5.10335 -10.946765,30.04799 -11.969202,35.1028 l -0.664054,3.28299 h 16.885084 16.885083 z"
       id="path114"
       transform="matrix(0.26458333,0,0,0.26458333,-3.4375e-8,3.3958334e-6)" />
  </g>
</svg>
